<svg width="300" height="195" viewBox="0 0 300 195" fill="none" xmlns="http://www.w3.org/2000/svg" role="img">
  <title>Most Used Languages</title>
  <style>
    .header { font: 600 18px 'Segoe UI', Ubuntu, Sans-Serif; fill: #2F81F7; }
    .stat { font: 600 13px 'Segoe UI', Ubuntu, "Helvetica Neue", Sans-Serif; fill: #9ca3af; }
  </style>
  <rect x="0.5" y="0.5" rx="4.5" height="194" width="299" fill="#00000000" stroke="none"/>
  <text x="25" y="35" class="header">Most Used Languages</text>
  <clipPath id="bar"><rect x="25" y="62" width="250" height="8" rx="4"/></clipPath>
  <g clip-path="url(#bar)">
    <rect x="25.00" y="62" width="182.33" height="8" fill="#00ADD8"/><rect x="207.33" y="62" width="21.74" height="8" fill="#3572A5"/><rect x="229.08" y="62" width="12.32" height="8" fill="#89e051"/><rect x="241.39" y="62" width="10.72" height="8" fill="#f1e05a"/><rect x="252.11" y="62" width="9.81" height="8" fill="#fcb32c"/><rect x="261.92" y="62" width="9.68" height="8" fill="#3178c6"/>
  </g>
  <circle cx="25" cy="101" r="5" fill="#00ADD8"/><text class="stat" x="39" y="105">Go 72.93%</text><circle cx="175" cy="101" r="5" fill="#3572A5"/><text class="stat" x="189" y="105">Python 8.70%</text><circle cx="25" cy="133" r="5" fill="#89e051"/><text class="stat" x="39" y="137">Shell 4.93%</text><circle cx="175" cy="133" r="5" fill="#f1e05a"/><text class="stat" x="189" y="137">JavaScript 4.29%</text><circle cx="25" cy="165" r="5" fill="#fcb32c"/><text class="stat" x="39" y="169">MDX 3.93%</text><circle cx="175" cy="165" r="5" fill="#3178c6"/><text class="stat" x="189" y="169">TypeScript 3.87%</text>
</svg>
